<mxfile host="app.diagrams.net" modified="2023-12-18T16:13:48.345Z" agent="Mozilla/5.0 (Windows NT 10.0; Win64; x64) AppleWebKit/537.36 (KHTML, like Gecko) Chrome/120.0.0.0 Safari/537.36" etag="IHuVYpjnBcqWlWnywwWA" version="22.1.11" type="github">
  <diagram name="Página-1" id="_bR8Y0PelfN_u2xStO4r">
    <mxGraphModel dx="2261" dy="738" grid="1" gridSize="10" guides="1" tooltips="1" connect="1" arrows="1" fold="1" page="1" pageScale="1" pageWidth="827" pageHeight="1169" math="0" shadow="0">
      <root>
        <mxCell id="0" />
        <mxCell id="1" parent="0" />
        <mxCell id="4WxtduSmjNVkcB8dckDW-51" value="descripción" style="ellipse;whiteSpace=wrap;html=1;fillColor=#FFCE9F;" parent="1" vertex="1">
          <mxGeometry x="118" y="914" width="100" height="60" as="geometry" />
        </mxCell>
        <mxCell id="4WxtduSmjNVkcB8dckDW-2" value="Usuario" style="rounded=0;whiteSpace=wrap;html=1;fillColor=#97D077;" parent="1" vertex="1">
          <mxGeometry x="248" y="504" width="120" height="60" as="geometry" />
        </mxCell>
        <mxCell id="4WxtduSmjNVkcB8dckDW-3" value="Ejercicio" style="rounded=0;whiteSpace=wrap;html=1;fillColor=#97D077;" parent="1" vertex="1">
          <mxGeometry x="768" y="284" width="120" height="60" as="geometry" />
        </mxCell>
        <mxCell id="4WxtduSmjNVkcB8dckDW-159" style="rounded=0;orthogonalLoop=1;jettySize=auto;html=1;exitX=0.5;exitY=1;exitDx=0;exitDy=0;entryX=0.5;entryY=0;entryDx=0;entryDy=0;endArrow=none;endFill=0;" parent="1" source="4WxtduSmjNVkcB8dckDW-5" target="4WxtduSmjNVkcB8dckDW-3" edge="1">
          <mxGeometry relative="1" as="geometry" />
        </mxCell>
        <mxCell id="4WxtduSmjNVkcB8dckDW-5" value="dificultad" style="ellipse;whiteSpace=wrap;html=1;fillColor=#FFCE9F;" parent="1" vertex="1">
          <mxGeometry x="838" y="194" width="100" height="60" as="geometry" />
        </mxCell>
        <mxCell id="4WxtduSmjNVkcB8dckDW-10" value="Detalle Rutina" style="rounded=0;whiteSpace=wrap;html=1;fillColor=#97D077;" parent="1" vertex="1">
          <mxGeometry x="768" y="504" width="120" height="60" as="geometry" />
        </mxCell>
        <mxCell id="4WxtduSmjNVkcB8dckDW-12" value="dificultad repeticion" style="ellipse;whiteSpace=wrap;html=1;fillColor=#FFCE9F;" parent="1" vertex="1">
          <mxGeometry x="1038" y="754" width="100" height="60" as="geometry" />
        </mxCell>
        <mxCell id="4WxtduSmjNVkcB8dckDW-13" value="Peso" style="rounded=0;whiteSpace=wrap;html=1;fillColor=#97D077;" parent="1" vertex="1">
          <mxGeometry x="-180" y="299" width="120" height="60" as="geometry" />
        </mxCell>
        <mxCell id="4WxtduSmjNVkcB8dckDW-14" value="Dieta" style="rounded=0;whiteSpace=wrap;html=1;fillColor=#97D077;" parent="1" vertex="1">
          <mxGeometry x="248" y="714" width="120" height="60" as="geometry" />
        </mxCell>
        <mxCell id="4WxtduSmjNVkcB8dckDW-15" value="tipo" style="ellipse;whiteSpace=wrap;html=1;fillColor=#FFCE9F;" parent="1" vertex="1">
          <mxGeometry x="578" y="594" width="100" height="60" as="geometry" />
        </mxCell>
        <mxCell id="4WxtduSmjNVkcB8dckDW-16" value="Musculo" style="rounded=0;whiteSpace=wrap;html=1;fillColor=#97D077;" parent="1" vertex="1">
          <mxGeometry x="1028" y="284" width="120" height="60" as="geometry" />
        </mxCell>
        <mxCell id="4WxtduSmjNVkcB8dckDW-161" style="rounded=0;orthogonalLoop=1;jettySize=auto;html=1;exitX=0.5;exitY=1;exitDx=0;exitDy=0;entryX=0.5;entryY=0;entryDx=0;entryDy=0;endArrow=none;endFill=0;" parent="1" source="4WxtduSmjNVkcB8dckDW-17" target="4WxtduSmjNVkcB8dckDW-16" edge="1">
          <mxGeometry relative="1" as="geometry" />
        </mxCell>
        <mxCell id="4WxtduSmjNVkcB8dckDW-17" value="zona cuerpo" style="ellipse;whiteSpace=wrap;html=1;fillColor=#FFCE9F;" parent="1" vertex="1">
          <mxGeometry x="978" y="194" width="100" height="60" as="geometry" />
        </mxCell>
        <mxCell id="4WxtduSmjNVkcB8dckDW-18" value="Receta" style="rounded=0;whiteSpace=wrap;html=1;fillColor=#97D077;" parent="1" vertex="1">
          <mxGeometry x="248" y="874" width="120" height="60" as="geometry" />
        </mxCell>
        <mxCell id="4WxtduSmjNVkcB8dckDW-146" style="rounded=0;orthogonalLoop=1;jettySize=auto;html=1;exitX=0.5;exitY=0;exitDx=0;exitDy=0;entryX=0.5;entryY=1;entryDx=0;entryDy=0;endArrow=none;endFill=0;" parent="1" source="4WxtduSmjNVkcB8dckDW-19" target="4WxtduSmjNVkcB8dckDW-2" edge="1">
          <mxGeometry relative="1" as="geometry" />
        </mxCell>
        <mxCell id="4WxtduSmjNVkcB8dckDW-19" value="apellido(s)" style="ellipse;whiteSpace=wrap;html=1;fillColor=#FFCE9F;" parent="1" vertex="1">
          <mxGeometry x="323" y="594" width="100" height="60" as="geometry" />
        </mxCell>
        <mxCell id="4WxtduSmjNVkcB8dckDW-144" style="rounded=0;orthogonalLoop=1;jettySize=auto;html=1;exitX=0.5;exitY=0;exitDx=0;exitDy=0;entryX=0.5;entryY=1;entryDx=0;entryDy=0;startArrow=none;startFill=0;endArrow=none;endFill=0;" parent="1" source="4WxtduSmjNVkcB8dckDW-21" target="4WxtduSmjNVkcB8dckDW-2" edge="1">
          <mxGeometry relative="1" as="geometry" />
        </mxCell>
        <mxCell id="4WxtduSmjNVkcB8dckDW-21" value="nombre" style="ellipse;whiteSpace=wrap;html=1;fillColor=#FFCE9F;" parent="1" vertex="1">
          <mxGeometry x="193" y="594" width="100" height="60" as="geometry" />
        </mxCell>
        <mxCell id="4WxtduSmjNVkcB8dckDW-137" style="rounded=0;orthogonalLoop=1;jettySize=auto;html=1;exitX=0;exitY=1;exitDx=0;exitDy=0;entryX=0.5;entryY=0;entryDx=0;entryDy=0;endArrow=none;endFill=0;" parent="1" source="4WxtduSmjNVkcB8dckDW-22" target="4WxtduSmjNVkcB8dckDW-2" edge="1">
          <mxGeometry relative="1" as="geometry" />
        </mxCell>
        <mxCell id="4WxtduSmjNVkcB8dckDW-22" value="fuerza objetivo" style="ellipse;whiteSpace=wrap;html=1;fillColor=#FFCE9F;" parent="1" vertex="1">
          <mxGeometry x="328" y="274" width="100" height="60" as="geometry" />
        </mxCell>
        <mxCell id="4WxtduSmjNVkcB8dckDW-135" style="rounded=0;orthogonalLoop=1;jettySize=auto;html=1;exitX=0;exitY=0.5;exitDx=0;exitDy=0;entryX=0.5;entryY=0;entryDx=0;entryDy=0;endArrow=none;endFill=0;" parent="1" source="4WxtduSmjNVkcB8dckDW-23" target="4WxtduSmjNVkcB8dckDW-2" edge="1">
          <mxGeometry relative="1" as="geometry" />
        </mxCell>
        <mxCell id="4WxtduSmjNVkcB8dckDW-23" value="resistencia objetivo" style="ellipse;whiteSpace=wrap;html=1;fillColor=#FFCE9F;" parent="1" vertex="1">
          <mxGeometry x="318" y="204" width="100" height="60" as="geometry" />
        </mxCell>
        <mxCell id="4WxtduSmjNVkcB8dckDW-138" style="rounded=0;orthogonalLoop=1;jettySize=auto;html=1;exitX=1;exitY=1;exitDx=0;exitDy=0;entryX=0.5;entryY=0;entryDx=0;entryDy=0;endArrow=none;endFill=0;" parent="1" source="4WxtduSmjNVkcB8dckDW-24" target="4WxtduSmjNVkcB8dckDW-2" edge="1">
          <mxGeometry relative="1" as="geometry" />
        </mxCell>
        <mxCell id="4WxtduSmjNVkcB8dckDW-24" value="fuerza actual" style="ellipse;whiteSpace=wrap;html=1;fillColor=#FFCE9F;" parent="1" vertex="1">
          <mxGeometry x="188" y="274" width="100" height="60" as="geometry" />
        </mxCell>
        <mxCell id="4WxtduSmjNVkcB8dckDW-136" style="rounded=0;orthogonalLoop=1;jettySize=auto;html=1;exitX=1;exitY=0.5;exitDx=0;exitDy=0;entryX=0.5;entryY=0;entryDx=0;entryDy=0;endArrow=none;endFill=0;" parent="1" source="4WxtduSmjNVkcB8dckDW-25" target="4WxtduSmjNVkcB8dckDW-2" edge="1">
          <mxGeometry relative="1" as="geometry" />
        </mxCell>
        <mxCell id="4WxtduSmjNVkcB8dckDW-25" value="resistencia actual" style="ellipse;whiteSpace=wrap;html=1;fillColor=#FFCE9F;" parent="1" vertex="1">
          <mxGeometry x="198" y="204" width="100" height="60" as="geometry" />
        </mxCell>
        <mxCell id="4WxtduSmjNVkcB8dckDW-175" style="rounded=0;orthogonalLoop=1;jettySize=auto;html=1;exitX=1;exitY=0.5;exitDx=0;exitDy=0;entryX=0;entryY=0.5;entryDx=0;entryDy=0;endArrow=none;endFill=0;" parent="1" source="4WxtduSmjNVkcB8dckDW-26" target="4WxtduSmjNVkcB8dckDW-18" edge="1">
          <mxGeometry relative="1" as="geometry" />
        </mxCell>
        <mxCell id="4WxtduSmjNVkcB8dckDW-26" value="nombre" style="ellipse;whiteSpace=wrap;html=1;fillColor=#FFCE9F;" parent="1" vertex="1">
          <mxGeometry x="118" y="834" width="100" height="60" as="geometry" />
        </mxCell>
        <mxCell id="4WxtduSmjNVkcB8dckDW-27" value="Registro" style="rounded=0;whiteSpace=wrap;html=1;fillColor=#97D077;" parent="1" vertex="1">
          <mxGeometry x="-12" y="504" width="120" height="60" as="geometry" />
        </mxCell>
        <mxCell id="4WxtduSmjNVkcB8dckDW-28" value="Resistencia" style="rounded=0;whiteSpace=wrap;html=1;fillColor=#97D077;" parent="1" vertex="1">
          <mxGeometry x="-180" y="714" width="120" height="60" as="geometry" />
        </mxCell>
        <mxCell id="4WxtduSmjNVkcB8dckDW-198" style="rounded=0;orthogonalLoop=1;jettySize=auto;html=1;exitX=0;exitY=0.5;exitDx=0;exitDy=0;entryX=1;entryY=0.5;entryDx=0;entryDy=0;endArrow=none;endFill=0;" parent="1" source="4WxtduSmjNVkcB8dckDW-29" target="4WxtduSmjNVkcB8dckDW-13" edge="1">
          <mxGeometry relative="1" as="geometry" />
        </mxCell>
        <mxCell id="4WxtduSmjNVkcB8dckDW-29" value="fecha&lt;br&gt;(calc)" style="ellipse;whiteSpace=wrap;html=1;fillColor=#FFCE9F;" parent="1" vertex="1">
          <mxGeometry x="-30" y="264" width="100" height="60" as="geometry" />
        </mxCell>
        <mxCell id="4WxtduSmjNVkcB8dckDW-200" style="rounded=0;orthogonalLoop=1;jettySize=auto;html=1;exitX=0;exitY=0.5;exitDx=0;exitDy=0;entryX=1;entryY=0.5;entryDx=0;entryDy=0;endArrow=none;endFill=0;" parent="1" source="4WxtduSmjNVkcB8dckDW-30" target="4WxtduSmjNVkcB8dckDW-13" edge="1">
          <mxGeometry relative="1" as="geometry" />
        </mxCell>
        <mxCell id="4WxtduSmjNVkcB8dckDW-30" value="peso&lt;br&gt;(calc)" style="ellipse;whiteSpace=wrap;html=1;fillColor=#FFCE9F;" parent="1" vertex="1">
          <mxGeometry x="-30" y="334" width="100" height="60" as="geometry" />
        </mxCell>
        <mxCell id="4WxtduSmjNVkcB8dckDW-31" value="fecha&lt;br&gt;(calc)" style="ellipse;whiteSpace=wrap;html=1;fillColor=#FFCE9F;" parent="1" vertex="1">
          <mxGeometry x="-232" y="419" width="100" height="60" as="geometry" />
        </mxCell>
        <mxCell id="4WxtduSmjNVkcB8dckDW-32" value="fuerza&lt;br&gt;(calc)" style="ellipse;whiteSpace=wrap;html=1;fillColor=#FFCE9F;" parent="1" vertex="1">
          <mxGeometry x="-232" y="594" width="100" height="60" as="geometry" />
        </mxCell>
        <mxCell id="4WxtduSmjNVkcB8dckDW-205" style="rounded=0;orthogonalLoop=1;jettySize=auto;html=1;exitX=0;exitY=0.5;exitDx=0;exitDy=0;entryX=1;entryY=0.5;entryDx=0;entryDy=0;endArrow=none;endFill=0;" parent="1" source="4WxtduSmjNVkcB8dckDW-33" target="4WxtduSmjNVkcB8dckDW-28" edge="1">
          <mxGeometry relative="1" as="geometry" />
        </mxCell>
        <mxCell id="4WxtduSmjNVkcB8dckDW-33" value="fecha&lt;br&gt;(calc)" style="ellipse;whiteSpace=wrap;html=1;fillColor=#FFCE9F;" parent="1" vertex="1">
          <mxGeometry x="-30" y="679" width="100" height="60" as="geometry" />
        </mxCell>
        <mxCell id="4WxtduSmjNVkcB8dckDW-207" style="rounded=0;orthogonalLoop=1;jettySize=auto;html=1;exitX=0;exitY=0.5;exitDx=0;exitDy=0;entryX=1;entryY=0.5;entryDx=0;entryDy=0;endArrow=none;endFill=0;" parent="1" source="4WxtduSmjNVkcB8dckDW-34" target="4WxtduSmjNVkcB8dckDW-28" edge="1">
          <mxGeometry relative="1" as="geometry" />
        </mxCell>
        <mxCell id="4WxtduSmjNVkcB8dckDW-34" value="resistencia&lt;br&gt;(calc)" style="ellipse;whiteSpace=wrap;html=1;fillColor=#FFCE9F;" parent="1" vertex="1">
          <mxGeometry x="-30" y="749" width="100" height="60" as="geometry" />
        </mxCell>
        <mxCell id="4WxtduSmjNVkcB8dckDW-36" value="Rutina" style="rounded=0;whiteSpace=wrap;html=1;fillColor=#97D077;" parent="1" vertex="1">
          <mxGeometry x="508" y="504" width="120" height="60" as="geometry" />
        </mxCell>
        <mxCell id="4WxtduSmjNVkcB8dckDW-151" style="rounded=0;orthogonalLoop=1;jettySize=auto;html=1;exitX=0.5;exitY=0;exitDx=0;exitDy=0;entryX=0.5;entryY=1;entryDx=0;entryDy=0;endArrow=none;endFill=0;" parent="1" source="4WxtduSmjNVkcB8dckDW-15" target="4WxtduSmjNVkcB8dckDW-36" edge="1">
          <mxGeometry relative="1" as="geometry" />
        </mxCell>
        <mxCell id="4WxtduSmjNVkcB8dckDW-147" style="rounded=0;orthogonalLoop=1;jettySize=auto;html=1;exitX=1;exitY=1;exitDx=0;exitDy=0;entryX=0.5;entryY=0;entryDx=0;entryDy=0;endArrow=none;endFill=0;" parent="1" source="4WxtduSmjNVkcB8dckDW-37" target="4WxtduSmjNVkcB8dckDW-36" edge="1">
          <mxGeometry relative="1" as="geometry" />
        </mxCell>
        <mxCell id="4WxtduSmjNVkcB8dckDW-37" value="dificultad media&lt;br&gt;(calc)" style="ellipse;whiteSpace=wrap;html=1;fillColor=#FFCE9F;" parent="1" vertex="1">
          <mxGeometry x="458" y="414" width="100" height="60" as="geometry" />
        </mxCell>
        <mxCell id="4WxtduSmjNVkcB8dckDW-150" style="rounded=0;orthogonalLoop=1;jettySize=auto;html=1;exitX=0.5;exitY=0;exitDx=0;exitDy=0;entryX=1;entryY=1;entryDx=0;entryDy=0;endArrow=none;endFill=0;" parent="1" source="4WxtduSmjNVkcB8dckDW-38" target="4WxtduSmjNVkcB8dckDW-62" edge="1">
          <mxGeometry relative="1" as="geometry" />
        </mxCell>
        <mxCell id="4WxtduSmjNVkcB8dckDW-38" value="fecha" style="ellipse;whiteSpace=wrap;html=1;fillColor=#FFCE9F;" parent="1" vertex="1">
          <mxGeometry x="448" y="594" width="100" height="60" as="geometry" />
        </mxCell>
        <mxCell id="4WxtduSmjNVkcB8dckDW-139" style="rounded=0;orthogonalLoop=1;jettySize=auto;html=1;exitX=0;exitY=1;exitDx=0;exitDy=0;entryX=0.5;entryY=0;entryDx=0;entryDy=0;endArrow=none;endFill=0;" parent="1" source="4WxtduSmjNVkcB8dckDW-41" target="4WxtduSmjNVkcB8dckDW-2" edge="1">
          <mxGeometry relative="1" as="geometry" />
        </mxCell>
        <mxCell id="4WxtduSmjNVkcB8dckDW-41" value="peso objetivo" style="ellipse;whiteSpace=wrap;html=1;fillColor=#FFCE9F;" parent="1" vertex="1">
          <mxGeometry x="338" y="344" width="100" height="60" as="geometry" />
        </mxCell>
        <mxCell id="4WxtduSmjNVkcB8dckDW-141" style="rounded=0;orthogonalLoop=1;jettySize=auto;html=1;exitX=1;exitY=1;exitDx=0;exitDy=0;entryX=0.5;entryY=0;entryDx=0;entryDy=0;endArrow=none;endFill=0;" parent="1" source="4WxtduSmjNVkcB8dckDW-42" target="4WxtduSmjNVkcB8dckDW-2" edge="1">
          <mxGeometry relative="1" as="geometry" />
        </mxCell>
        <mxCell id="4WxtduSmjNVkcB8dckDW-42" value="peso actual" style="ellipse;whiteSpace=wrap;html=1;fillColor=#FFCE9F;" parent="1" vertex="1">
          <mxGeometry x="178" y="344" width="100" height="60" as="geometry" />
        </mxCell>
        <mxCell id="4WxtduSmjNVkcB8dckDW-142" style="rounded=0;orthogonalLoop=1;jettySize=auto;html=1;exitX=0;exitY=0.5;exitDx=0;exitDy=0;entryX=0.5;entryY=0;entryDx=0;entryDy=0;endArrow=none;endFill=0;" parent="1" source="4WxtduSmjNVkcB8dckDW-43" target="4WxtduSmjNVkcB8dckDW-2" edge="1">
          <mxGeometry relative="1" as="geometry" />
        </mxCell>
        <mxCell id="4WxtduSmjNVkcB8dckDW-43" value="ID" style="ellipse;whiteSpace=wrap;html=1;strokeWidth=2;fontStyle=1;fontSize=14;fillColor=#FFCE9F;" parent="1" vertex="1">
          <mxGeometry x="348" y="414" width="100" height="60" as="geometry" />
        </mxCell>
        <mxCell id="4WxtduSmjNVkcB8dckDW-143" style="rounded=0;orthogonalLoop=1;jettySize=auto;html=1;exitX=1;exitY=0.5;exitDx=0;exitDy=0;entryX=0.5;entryY=0;entryDx=0;entryDy=0;endArrow=none;endFill=0;" parent="1" source="4WxtduSmjNVkcB8dckDW-44" target="4WxtduSmjNVkcB8dckDW-2" edge="1">
          <mxGeometry relative="1" as="geometry" />
        </mxCell>
        <mxCell id="4WxtduSmjNVkcB8dckDW-44" value="e-mail" style="ellipse;whiteSpace=wrap;html=1;fillColor=#FFCE9F;strokeWidth=3;dashed=1;dashPattern=1 2;fontStyle=1" parent="1" vertex="1">
          <mxGeometry x="168" y="414" width="100" height="60" as="geometry" />
        </mxCell>
        <mxCell id="4WxtduSmjNVkcB8dckDW-171" style="rounded=0;orthogonalLoop=1;jettySize=auto;html=1;exitX=0;exitY=0.5;exitDx=0;exitDy=0;entryX=1;entryY=0.5;entryDx=0;entryDy=0;endArrow=none;endFill=0;" parent="1" source="4WxtduSmjNVkcB8dckDW-48" target="4WxtduSmjNVkcB8dckDW-14" edge="1">
          <mxGeometry relative="1" as="geometry" />
        </mxCell>
        <mxCell id="4WxtduSmjNVkcB8dckDW-48" value="ID" style="ellipse;whiteSpace=wrap;html=1;strokeWidth=2;fontStyle=1;fontSize=14;fillColor=#FFCE9F;" parent="1" vertex="1">
          <mxGeometry x="398" y="714" width="100" height="60" as="geometry" />
        </mxCell>
        <mxCell id="4WxtduSmjNVkcB8dckDW-190" style="rounded=0;orthogonalLoop=1;jettySize=auto;html=1;exitX=0;exitY=0.5;exitDx=0;exitDy=0;entryX=1;entryY=0.5;entryDx=0;entryDy=0;endArrow=none;endFill=0;" parent="1" source="4WxtduSmjNVkcB8dckDW-49" target="4WxtduSmjNVkcB8dckDW-18" edge="1">
          <mxGeometry relative="1" as="geometry" />
        </mxCell>
        <mxCell id="4WxtduSmjNVkcB8dckDW-49" value="ID" style="ellipse;whiteSpace=wrap;html=1;strokeWidth=2;fontStyle=1;fontSize=14;fillColor=#FFCE9F;" parent="1" vertex="1">
          <mxGeometry x="398" y="874" width="100" height="60" as="geometry" />
        </mxCell>
        <mxCell id="4WxtduSmjNVkcB8dckDW-172" style="rounded=0;orthogonalLoop=1;jettySize=auto;html=1;exitX=1;exitY=0.5;exitDx=0;exitDy=0;entryX=0;entryY=0.5;entryDx=0;entryDy=0;endArrow=none;endFill=0;" parent="1" source="4WxtduSmjNVkcB8dckDW-50" target="4WxtduSmjNVkcB8dckDW-14" edge="1">
          <mxGeometry relative="1" as="geometry" />
        </mxCell>
        <mxCell id="4WxtduSmjNVkcB8dckDW-50" value="tipo" style="ellipse;whiteSpace=wrap;html=1;fillColor=#FFCE9F;" parent="1" vertex="1">
          <mxGeometry x="118" y="674" width="100" height="60" as="geometry" />
        </mxCell>
        <mxCell id="4WxtduSmjNVkcB8dckDW-216" style="rounded=0;orthogonalLoop=1;jettySize=auto;html=1;exitX=1;exitY=0.5;exitDx=0;exitDy=0;entryX=0;entryY=0.5;entryDx=0;entryDy=0;endArrow=none;endFill=0;" parent="1" source="4WxtduSmjNVkcB8dckDW-51" target="4WxtduSmjNVkcB8dckDW-18" edge="1">
          <mxGeometry relative="1" as="geometry" />
        </mxCell>
        <mxCell id="4WxtduSmjNVkcB8dckDW-148" style="rounded=0;orthogonalLoop=1;jettySize=auto;html=1;exitX=0;exitY=1;exitDx=0;exitDy=0;entryX=0.5;entryY=0;entryDx=0;entryDy=0;endArrow=none;endFill=0;" parent="1" source="4WxtduSmjNVkcB8dckDW-52" target="4WxtduSmjNVkcB8dckDW-36" edge="1">
          <mxGeometry relative="1" as="geometry" />
        </mxCell>
        <mxCell id="4WxtduSmjNVkcB8dckDW-52" value="ID" style="ellipse;whiteSpace=wrap;html=1;strokeWidth=2;fontStyle=1;fontSize=14;fillColor=#FFCE9F;" parent="1" vertex="1">
          <mxGeometry x="578" y="414" width="100" height="60" as="geometry" />
        </mxCell>
        <mxCell id="4WxtduSmjNVkcB8dckDW-152" style="rounded=0;orthogonalLoop=1;jettySize=auto;html=1;exitX=0.5;exitY=0;exitDx=0;exitDy=0;entryX=0.5;entryY=1;entryDx=0;entryDy=0;endArrow=none;endFill=0;" parent="1" source="4WxtduSmjNVkcB8dckDW-53" target="4WxtduSmjNVkcB8dckDW-10" edge="1">
          <mxGeometry relative="1" as="geometry" />
        </mxCell>
        <mxCell id="4WxtduSmjNVkcB8dckDW-53" value="ID" style="ellipse;whiteSpace=wrap;html=1;strokeWidth=2;fontStyle=1;fontSize=14;fillColor=#FFCE9F;" parent="1" vertex="1">
          <mxGeometry x="718" y="594" width="100" height="60" as="geometry" />
        </mxCell>
        <mxCell id="4WxtduSmjNVkcB8dckDW-149" style="rounded=0;orthogonalLoop=1;jettySize=auto;html=1;exitX=0.5;exitY=1;exitDx=0;exitDy=0;entryX=0.5;entryY=0;entryDx=0;entryDy=0;endArrow=none;endFill=0;" parent="1" source="4WxtduSmjNVkcB8dckDW-54" target="4WxtduSmjNVkcB8dckDW-36" edge="1">
          <mxGeometry relative="1" as="geometry" />
        </mxCell>
        <mxCell id="4WxtduSmjNVkcB8dckDW-54" value="nombre" style="ellipse;whiteSpace=wrap;html=1;fillColor=#FFCE9F;" parent="1" vertex="1">
          <mxGeometry x="518" y="344" width="100" height="60" as="geometry" />
        </mxCell>
        <mxCell id="4WxtduSmjNVkcB8dckDW-160" style="rounded=0;orthogonalLoop=1;jettySize=auto;html=1;exitX=0.5;exitY=1;exitDx=0;exitDy=0;entryX=0.5;entryY=0;entryDx=0;entryDy=0;endArrow=none;endFill=0;" parent="1" source="4WxtduSmjNVkcB8dckDW-56" target="4WxtduSmjNVkcB8dckDW-3" edge="1">
          <mxGeometry relative="1" as="geometry" />
        </mxCell>
        <mxCell id="4WxtduSmjNVkcB8dckDW-56" value="tipo" style="ellipse;whiteSpace=wrap;html=1;fillColor=#FFCE9F;" parent="1" vertex="1">
          <mxGeometry x="718" y="194" width="100" height="60" as="geometry" />
        </mxCell>
        <mxCell id="4WxtduSmjNVkcB8dckDW-157" style="rounded=0;orthogonalLoop=1;jettySize=auto;html=1;exitX=0.5;exitY=0;exitDx=0;exitDy=0;entryX=0.5;entryY=1;entryDx=0;entryDy=0;endArrow=none;endFill=0;" parent="1" source="4WxtduSmjNVkcB8dckDW-57" target="4WxtduSmjNVkcB8dckDW-3" edge="1">
          <mxGeometry relative="1" as="geometry" />
        </mxCell>
        <mxCell id="4WxtduSmjNVkcB8dckDW-57" value="ID" style="ellipse;whiteSpace=wrap;html=1;strokeWidth=2;fontStyle=1;fontSize=14;fillColor=#FFCE9F;" parent="1" vertex="1">
          <mxGeometry x="718" y="374" width="100" height="60" as="geometry" />
        </mxCell>
        <mxCell id="4WxtduSmjNVkcB8dckDW-162" style="rounded=0;orthogonalLoop=1;jettySize=auto;html=1;exitX=0.5;exitY=0;exitDx=0;exitDy=0;entryX=0.5;entryY=1;entryDx=0;entryDy=0;endArrow=none;endFill=0;" parent="1" source="4WxtduSmjNVkcB8dckDW-58" target="4WxtduSmjNVkcB8dckDW-16" edge="1">
          <mxGeometry relative="1" as="geometry" />
        </mxCell>
        <mxCell id="4WxtduSmjNVkcB8dckDW-58" value="ID" style="ellipse;whiteSpace=wrap;html=1;strokeWidth=2;fontStyle=1;fontSize=14;fillColor=#FFCE9F;" parent="1" vertex="1">
          <mxGeometry x="1038" y="364" width="100" height="60" as="geometry" />
        </mxCell>
        <mxCell id="4WxtduSmjNVkcB8dckDW-95" style="edgeStyle=orthogonalEdgeStyle;rounded=0;orthogonalLoop=1;jettySize=auto;html=1;entryX=1;entryY=0.5;entryDx=0;entryDy=0;endArrow=none;endFill=0;" parent="1" source="4WxtduSmjNVkcB8dckDW-60" target="4WxtduSmjNVkcB8dckDW-27" edge="1">
          <mxGeometry relative="1" as="geometry" />
        </mxCell>
        <mxCell id="4WxtduSmjNVkcB8dckDW-60" value="E" style="rhombus;whiteSpace=wrap;html=1;fillColor=#A680B8;" parent="1" vertex="1">
          <mxGeometry x="148" y="504" width="60" height="60" as="geometry" />
        </mxCell>
        <mxCell id="4WxtduSmjNVkcB8dckDW-89" style="edgeStyle=orthogonalEdgeStyle;rounded=0;orthogonalLoop=1;jettySize=auto;html=1;entryX=1;entryY=0.5;entryDx=0;entryDy=0;endArrow=none;endFill=0;" parent="1" source="4WxtduSmjNVkcB8dckDW-2" target="4WxtduSmjNVkcB8dckDW-60" edge="1">
          <mxGeometry relative="1" as="geometry" />
        </mxCell>
        <mxCell id="4WxtduSmjNVkcB8dckDW-98" style="edgeStyle=orthogonalEdgeStyle;rounded=0;orthogonalLoop=1;jettySize=auto;html=1;entryX=0;entryY=0.5;entryDx=0;entryDy=0;endArrow=none;endFill=0;" parent="1" source="4WxtduSmjNVkcB8dckDW-62" target="4WxtduSmjNVkcB8dckDW-36" edge="1">
          <mxGeometry relative="1" as="geometry" />
        </mxCell>
        <mxCell id="4WxtduSmjNVkcB8dckDW-62" value="E" style="rhombus;whiteSpace=wrap;html=1;fillColor=#A680B8;" parent="1" vertex="1">
          <mxGeometry x="408" y="504" width="60" height="60" as="geometry" />
        </mxCell>
        <mxCell id="4WxtduSmjNVkcB8dckDW-97" style="edgeStyle=orthogonalEdgeStyle;rounded=0;orthogonalLoop=1;jettySize=auto;html=1;entryX=0;entryY=0.5;entryDx=0;entryDy=0;endArrow=none;endFill=0;" parent="1" source="4WxtduSmjNVkcB8dckDW-2" target="4WxtduSmjNVkcB8dckDW-62" edge="1">
          <mxGeometry relative="1" as="geometry" />
        </mxCell>
        <mxCell id="4WxtduSmjNVkcB8dckDW-86" style="edgeStyle=orthogonalEdgeStyle;rounded=0;orthogonalLoop=1;jettySize=auto;html=1;entryX=0.5;entryY=0;entryDx=0;entryDy=0;endArrow=none;endFill=0;" parent="1" target="4WxtduSmjNVkcB8dckDW-14" edge="1">
          <mxGeometry relative="1" as="geometry">
            <mxPoint x="308" y="684" as="sourcePoint" />
          </mxGeometry>
        </mxCell>
        <mxCell id="4WxtduSmjNVkcB8dckDW-63" value="E" style="rhombus;whiteSpace=wrap;html=1;fillColor=#A680B8;" parent="1" vertex="1">
          <mxGeometry x="278" y="634" width="60" height="60" as="geometry" />
        </mxCell>
        <mxCell id="4WxtduSmjNVkcB8dckDW-85" style="edgeStyle=orthogonalEdgeStyle;rounded=0;orthogonalLoop=1;jettySize=auto;html=1;entryX=0.5;entryY=0;entryDx=0;entryDy=0;endArrow=none;endFill=0;" parent="1" source="4WxtduSmjNVkcB8dckDW-2" target="4WxtduSmjNVkcB8dckDW-63" edge="1">
          <mxGeometry relative="1" as="geometry" />
        </mxCell>
        <mxCell id="4WxtduSmjNVkcB8dckDW-88" style="edgeStyle=orthogonalEdgeStyle;rounded=0;orthogonalLoop=1;jettySize=auto;html=1;endArrow=none;endFill=0;" parent="1" source="4WxtduSmjNVkcB8dckDW-64" target="4WxtduSmjNVkcB8dckDW-18" edge="1">
          <mxGeometry relative="1" as="geometry" />
        </mxCell>
        <mxCell id="4WxtduSmjNVkcB8dckDW-64" value="E" style="rhombus;whiteSpace=wrap;html=1;fillColor=#A680B8;" parent="1" vertex="1">
          <mxGeometry x="278" y="794" width="60" height="60" as="geometry" />
        </mxCell>
        <mxCell id="4WxtduSmjNVkcB8dckDW-87" style="edgeStyle=orthogonalEdgeStyle;rounded=0;orthogonalLoop=1;jettySize=auto;html=1;entryX=0.5;entryY=0;entryDx=0;entryDy=0;endArrow=none;endFill=0;" parent="1" source="4WxtduSmjNVkcB8dckDW-14" target="4WxtduSmjNVkcB8dckDW-64" edge="1">
          <mxGeometry relative="1" as="geometry" />
        </mxCell>
        <mxCell id="4WxtduSmjNVkcB8dckDW-82" style="edgeStyle=orthogonalEdgeStyle;rounded=0;orthogonalLoop=1;jettySize=auto;html=1;entryX=0;entryY=0.5;entryDx=0;entryDy=0;endArrow=none;endFill=0;" parent="1" source="4WxtduSmjNVkcB8dckDW-65" target="4WxtduSmjNVkcB8dckDW-10" edge="1">
          <mxGeometry relative="1" as="geometry" />
        </mxCell>
        <mxCell id="4WxtduSmjNVkcB8dckDW-65" value="E" style="rhombus;whiteSpace=wrap;html=1;fillColor=#A680B8;" parent="1" vertex="1">
          <mxGeometry x="668" y="504" width="60" height="60" as="geometry" />
        </mxCell>
        <mxCell id="4WxtduSmjNVkcB8dckDW-81" style="edgeStyle=orthogonalEdgeStyle;rounded=0;orthogonalLoop=1;jettySize=auto;html=1;entryX=0;entryY=0.5;entryDx=0;entryDy=0;endArrow=none;endFill=0;" parent="1" source="4WxtduSmjNVkcB8dckDW-36" target="4WxtduSmjNVkcB8dckDW-65" edge="1">
          <mxGeometry relative="1" as="geometry">
            <mxPoint x="688" y="534" as="targetPoint" />
          </mxGeometry>
        </mxCell>
        <mxCell id="4WxtduSmjNVkcB8dckDW-76" style="edgeStyle=orthogonalEdgeStyle;rounded=0;orthogonalLoop=1;jettySize=auto;html=1;exitX=1;exitY=0.5;exitDx=0;exitDy=0;entryX=0;entryY=0.5;entryDx=0;entryDy=0;endArrow=none;endFill=0;" parent="1" source="4WxtduSmjNVkcB8dckDW-68" target="4WxtduSmjNVkcB8dckDW-16" edge="1">
          <mxGeometry relative="1" as="geometry" />
        </mxCell>
        <mxCell id="4WxtduSmjNVkcB8dckDW-68" value="E" style="rhombus;whiteSpace=wrap;html=1;fillColor=#A680B8;" parent="1" vertex="1">
          <mxGeometry x="928" y="284" width="60" height="60" as="geometry" />
        </mxCell>
        <mxCell id="4WxtduSmjNVkcB8dckDW-75" style="edgeStyle=orthogonalEdgeStyle;rounded=0;orthogonalLoop=1;jettySize=auto;html=1;exitX=1;exitY=0.5;exitDx=0;exitDy=0;endArrow=none;endFill=0;" parent="1" source="4WxtduSmjNVkcB8dckDW-3" target="4WxtduSmjNVkcB8dckDW-68" edge="1">
          <mxGeometry relative="1" as="geometry" />
        </mxCell>
        <mxCell id="4WxtduSmjNVkcB8dckDW-215" style="rounded=0;orthogonalLoop=1;jettySize=auto;html=1;exitX=0.5;exitY=1;exitDx=0;exitDy=0;entryX=0.5;entryY=0;entryDx=0;entryDy=0;endArrow=none;endFill=0;" parent="1" source="4WxtduSmjNVkcB8dckDW-69" target="4WxtduSmjNVkcB8dckDW-16" edge="1">
          <mxGeometry relative="1" as="geometry" />
        </mxCell>
        <mxCell id="4WxtduSmjNVkcB8dckDW-69" value="nombre" style="ellipse;whiteSpace=wrap;html=1;fillColor=#FFCE9F;" parent="1" vertex="1">
          <mxGeometry x="1098" y="194" width="100" height="60" as="geometry" />
        </mxCell>
        <mxCell id="4WxtduSmjNVkcB8dckDW-158" style="rounded=0;orthogonalLoop=1;jettySize=auto;html=1;exitX=0.5;exitY=0;exitDx=0;exitDy=0;entryX=0.5;entryY=1;entryDx=0;entryDy=0;endArrow=none;endFill=0;" parent="1" source="4WxtduSmjNVkcB8dckDW-70" target="4WxtduSmjNVkcB8dckDW-3" edge="1">
          <mxGeometry relative="1" as="geometry" />
        </mxCell>
        <mxCell id="4WxtduSmjNVkcB8dckDW-70" value="nombre" style="ellipse;whiteSpace=wrap;html=1;fillColor=#FFCE9F;" parent="1" vertex="1">
          <mxGeometry x="838" y="374" width="100" height="60" as="geometry" />
        </mxCell>
        <mxCell id="4WxtduSmjNVkcB8dckDW-74" style="edgeStyle=orthogonalEdgeStyle;rounded=0;orthogonalLoop=1;jettySize=auto;html=1;entryX=0.5;entryY=1;entryDx=0;entryDy=0;endArrow=none;endFill=0;" parent="1" source="4WxtduSmjNVkcB8dckDW-71" target="4WxtduSmjNVkcB8dckDW-3" edge="1">
          <mxGeometry relative="1" as="geometry" />
        </mxCell>
        <mxCell id="4WxtduSmjNVkcB8dckDW-71" value="E" style="rhombus;whiteSpace=wrap;html=1;fillColor=#A680B8;" parent="1" vertex="1">
          <mxGeometry x="798" y="424" width="60" height="60" as="geometry" />
        </mxCell>
        <mxCell id="4WxtduSmjNVkcB8dckDW-72" value="" style="edgeStyle=orthogonalEdgeStyle;rounded=0;orthogonalLoop=1;jettySize=auto;html=1;endArrow=none;endFill=0;" parent="1" source="4WxtduSmjNVkcB8dckDW-10" target="4WxtduSmjNVkcB8dckDW-71" edge="1">
          <mxGeometry relative="1" as="geometry" />
        </mxCell>
        <mxCell id="4WxtduSmjNVkcB8dckDW-101" value="Serie" style="rounded=0;whiteSpace=wrap;html=1;fillColor=#97D077;" parent="1" vertex="1">
          <mxGeometry x="1028" y="504" width="120" height="60" as="geometry" />
        </mxCell>
        <mxCell id="4WxtduSmjNVkcB8dckDW-212" style="rounded=0;orthogonalLoop=1;jettySize=auto;html=1;exitX=0.5;exitY=1;exitDx=0;exitDy=0;entryX=0.5;entryY=0;entryDx=0;entryDy=0;endArrow=none;endFill=0;" parent="1" source="4WxtduSmjNVkcB8dckDW-102" target="4WxtduSmjNVkcB8dckDW-101" edge="1">
          <mxGeometry relative="1" as="geometry" />
        </mxCell>
        <mxCell id="4WxtduSmjNVkcB8dckDW-102" value="ID" style="ellipse;whiteSpace=wrap;html=1;strokeWidth=2;fontStyle=1;fontSize=14;fillColor=#FFCE9F;" parent="1" vertex="1">
          <mxGeometry x="978" y="419" width="100" height="60" as="geometry" />
        </mxCell>
        <mxCell id="4WxtduSmjNVkcB8dckDW-211" style="rounded=0;orthogonalLoop=1;jettySize=auto;html=1;exitX=0.5;exitY=1;exitDx=0;exitDy=0;entryX=0.5;entryY=0;entryDx=0;entryDy=0;endArrow=none;endFill=0;" parent="1" source="4WxtduSmjNVkcB8dckDW-103" target="4WxtduSmjNVkcB8dckDW-101" edge="1">
          <mxGeometry relative="1" as="geometry" />
        </mxCell>
        <mxCell id="4WxtduSmjNVkcB8dckDW-103" value="numero" style="ellipse;whiteSpace=wrap;html=1;fillColor=#FFCE9F;" parent="1" vertex="1">
          <mxGeometry x="1098" y="419" width="100" height="60" as="geometry" />
        </mxCell>
        <mxCell id="4WxtduSmjNVkcB8dckDW-105" value="ID" style="ellipse;whiteSpace=wrap;html=1;strokeWidth=2;fontStyle=1;fontSize=14;fillColor=#FFCE9F;" parent="1" vertex="1">
          <mxGeometry x="898" y="664" width="100" height="60" as="geometry" />
        </mxCell>
        <mxCell id="4WxtduSmjNVkcB8dckDW-106" value="numero" style="ellipse;whiteSpace=wrap;html=1;fillColor=#FFCE9F;" parent="1" vertex="1">
          <mxGeometry x="918" y="744" width="100" height="60" as="geometry" />
        </mxCell>
        <mxCell id="4WxtduSmjNVkcB8dckDW-109" style="edgeStyle=orthogonalEdgeStyle;rounded=0;orthogonalLoop=1;jettySize=auto;html=1;exitX=1;exitY=0.5;exitDx=0;exitDy=0;entryX=0;entryY=0.5;entryDx=0;entryDy=0;endArrow=none;endFill=0;" parent="1" source="4WxtduSmjNVkcB8dckDW-107" target="4WxtduSmjNVkcB8dckDW-101" edge="1">
          <mxGeometry relative="1" as="geometry" />
        </mxCell>
        <mxCell id="4WxtduSmjNVkcB8dckDW-107" value="E" style="rhombus;whiteSpace=wrap;html=1;fillColor=#A680B8;" parent="1" vertex="1">
          <mxGeometry x="928" y="504" width="60" height="60" as="geometry" />
        </mxCell>
        <mxCell id="4WxtduSmjNVkcB8dckDW-108" style="edgeStyle=orthogonalEdgeStyle;rounded=0;orthogonalLoop=1;jettySize=auto;html=1;exitX=1;exitY=0.5;exitDx=0;exitDy=0;entryX=0;entryY=0.5;entryDx=0;entryDy=0;endArrow=none;endFill=0;" parent="1" source="4WxtduSmjNVkcB8dckDW-10" target="4WxtduSmjNVkcB8dckDW-107" edge="1">
          <mxGeometry relative="1" as="geometry" />
        </mxCell>
        <mxCell id="4WxtduSmjNVkcB8dckDW-110" value="E" style="rhombus;whiteSpace=wrap;html=1;fillColor=#A680B8;" parent="1" vertex="1">
          <mxGeometry x="1058" y="584" width="60" height="60" as="geometry" />
        </mxCell>
        <mxCell id="4WxtduSmjNVkcB8dckDW-111" style="edgeStyle=orthogonalEdgeStyle;rounded=0;orthogonalLoop=1;jettySize=auto;html=1;exitX=0.5;exitY=1;exitDx=0;exitDy=0;entryX=0.5;entryY=0;entryDx=0;entryDy=0;endArrow=none;endFill=0;" parent="1" source="4WxtduSmjNVkcB8dckDW-101" target="4WxtduSmjNVkcB8dckDW-110" edge="1">
          <mxGeometry relative="1" as="geometry" />
        </mxCell>
        <mxCell id="4WxtduSmjNVkcB8dckDW-118" value="" style="group;fillColor=#B9E0A5;" parent="1" vertex="1" connectable="0">
          <mxGeometry x="1028" y="664" width="120" height="60" as="geometry" />
        </mxCell>
        <mxCell id="4WxtduSmjNVkcB8dckDW-114" value="" style="verticalLabelPosition=bottom;verticalAlign=top;html=1;shape=mxgraph.basic.frame;dx=10;whiteSpace=wrap;fillColor=#97D077;" parent="4WxtduSmjNVkcB8dckDW-118" vertex="1">
          <mxGeometry width="120" height="60" as="geometry" />
        </mxCell>
        <mxCell id="4WxtduSmjNVkcB8dckDW-115" value="Repeticion" style="text;html=1;align=center;verticalAlign=middle;resizable=0;points=[];autosize=1;strokeColor=none;fillColor=none;" parent="4WxtduSmjNVkcB8dckDW-118" vertex="1">
          <mxGeometry x="20" y="15" width="80" height="30" as="geometry" />
        </mxCell>
        <mxCell id="4WxtduSmjNVkcB8dckDW-119" style="edgeStyle=orthogonalEdgeStyle;rounded=0;orthogonalLoop=1;jettySize=auto;html=1;exitX=0.25;exitY=1;exitDx=0;exitDy=0;entryX=0;entryY=0;entryDx=30.000000000000004;entryDy=0;entryPerimeter=0;" parent="1" source="4WxtduSmjNVkcB8dckDW-101" target="4WxtduSmjNVkcB8dckDW-114" edge="1">
          <mxGeometry relative="1" as="geometry" />
        </mxCell>
        <mxCell id="4WxtduSmjNVkcB8dckDW-153" style="rounded=0;orthogonalLoop=1;jettySize=auto;html=1;exitX=0.5;exitY=0;exitDx=0;exitDy=0;entryX=0.5;entryY=1;entryDx=0;entryDy=0;endArrow=none;endFill=0;" parent="1" source="4WxtduSmjNVkcB8dckDW-121" target="4WxtduSmjNVkcB8dckDW-10" edge="1">
          <mxGeometry relative="1" as="geometry" />
        </mxCell>
        <mxCell id="4WxtduSmjNVkcB8dckDW-121" value="tiempo" style="ellipse;whiteSpace=wrap;html=1;fillColor=#FFCE9F;" parent="1" vertex="1">
          <mxGeometry x="838" y="594" width="100" height="60" as="geometry" />
        </mxCell>
        <mxCell id="4WxtduSmjNVkcB8dckDW-174" style="rounded=0;orthogonalLoop=1;jettySize=auto;html=1;exitX=1;exitY=0.5;exitDx=0;exitDy=0;entryX=0;entryY=0.5;entryDx=0;entryDy=0;endArrow=none;endFill=0;" parent="1" source="4WxtduSmjNVkcB8dckDW-122" target="4WxtduSmjNVkcB8dckDW-14" edge="1">
          <mxGeometry relative="1" as="geometry" />
        </mxCell>
        <mxCell id="4WxtduSmjNVkcB8dckDW-122" value="nombre" style="ellipse;whiteSpace=wrap;html=1;fillColor=#FFCE9F;" parent="1" vertex="1">
          <mxGeometry x="118" y="754" width="100" height="60" as="geometry" />
        </mxCell>
        <mxCell id="4WxtduSmjNVkcB8dckDW-124" value="Fuerza" style="rounded=0;whiteSpace=wrap;html=1;fillColor=#97D077;" parent="1" vertex="1">
          <mxGeometry x="-242" y="504" width="120" height="60" as="geometry" />
        </mxCell>
        <mxCell id="4WxtduSmjNVkcB8dckDW-127" style="rounded=0;orthogonalLoop=1;jettySize=auto;html=1;exitX=0.5;exitY=1;exitDx=0;exitDy=0;entryX=0.5;entryY=1;entryDx=0;entryDy=0;endArrow=none;endFill=0;" parent="1" source="4WxtduSmjNVkcB8dckDW-125" target="4WxtduSmjNVkcB8dckDW-13" edge="1">
          <mxGeometry relative="1" as="geometry" />
        </mxCell>
        <mxCell id="4WxtduSmjNVkcB8dckDW-128" style="rounded=0;orthogonalLoop=1;jettySize=auto;html=1;exitX=0.5;exitY=0;exitDx=0;exitDy=0;entryX=0.5;entryY=0;entryDx=0;entryDy=0;endArrow=none;endFill=0;" parent="1" source="4WxtduSmjNVkcB8dckDW-125" target="4WxtduSmjNVkcB8dckDW-28" edge="1">
          <mxGeometry relative="1" as="geometry" />
        </mxCell>
        <mxCell id="4WxtduSmjNVkcB8dckDW-129" style="edgeStyle=orthogonalEdgeStyle;rounded=0;orthogonalLoop=1;jettySize=auto;html=1;entryX=1;entryY=0.5;entryDx=0;entryDy=0;endArrow=none;endFill=0;" parent="1" source="4WxtduSmjNVkcB8dckDW-125" target="4WxtduSmjNVkcB8dckDW-124" edge="1">
          <mxGeometry relative="1" as="geometry" />
        </mxCell>
        <mxCell id="4WxtduSmjNVkcB8dckDW-125" value="" style="triangle;whiteSpace=wrap;html=1;rotation=-180;fillColor=#A680B8;" parent="1" vertex="1">
          <mxGeometry x="-92" y="504" width="50" height="60" as="geometry" />
        </mxCell>
        <mxCell id="4WxtduSmjNVkcB8dckDW-204" style="rounded=0;orthogonalLoop=1;jettySize=auto;html=1;exitX=0.5;exitY=0;exitDx=0;exitDy=0;entryX=0.5;entryY=1;entryDx=0;entryDy=0;endArrow=none;endFill=0;" parent="1" source="4WxtduSmjNVkcB8dckDW-134" target="4WxtduSmjNVkcB8dckDW-27" edge="1">
          <mxGeometry relative="1" as="geometry" />
        </mxCell>
        <mxCell id="4WxtduSmjNVkcB8dckDW-134" value="ID" style="ellipse;whiteSpace=wrap;html=1;strokeWidth=2;fontStyle=1;fontSize=14;fillColor=#FFCE9F;" parent="1" vertex="1">
          <mxGeometry x="-2" y="594" width="100" height="60" as="geometry" />
        </mxCell>
        <mxCell id="4WxtduSmjNVkcB8dckDW-168" style="rounded=0;orthogonalLoop=1;jettySize=auto;html=1;exitX=0.5;exitY=0;exitDx=0;exitDy=0;entryX=0.5;entryY=1;entryDx=0;entryDy=0;entryPerimeter=0;endArrow=none;endFill=0;" parent="1" source="4WxtduSmjNVkcB8dckDW-12" target="4WxtduSmjNVkcB8dckDW-114" edge="1">
          <mxGeometry relative="1" as="geometry" />
        </mxCell>
        <mxCell id="4WxtduSmjNVkcB8dckDW-201" style="rounded=0;orthogonalLoop=1;jettySize=auto;html=1;exitX=0.5;exitY=1;exitDx=0;exitDy=0;entryX=0.5;entryY=0;entryDx=0;entryDy=0;endArrow=none;endFill=0;" parent="1" source="4WxtduSmjNVkcB8dckDW-31" target="4WxtduSmjNVkcB8dckDW-124" edge="1">
          <mxGeometry relative="1" as="geometry" />
        </mxCell>
        <mxCell id="4WxtduSmjNVkcB8dckDW-209" style="edgeStyle=orthogonalEdgeStyle;rounded=0;orthogonalLoop=1;jettySize=auto;html=1;exitX=0.5;exitY=1;exitDx=0;exitDy=0;entryX=0.5;entryY=0;entryDx=0;entryDy=0;entryPerimeter=0;endArrow=none;endFill=0;" parent="1" source="4WxtduSmjNVkcB8dckDW-110" target="4WxtduSmjNVkcB8dckDW-114" edge="1">
          <mxGeometry relative="1" as="geometry" />
        </mxCell>
        <mxCell id="4WxtduSmjNVkcB8dckDW-203" style="rounded=0;orthogonalLoop=1;jettySize=auto;html=1;exitX=0.5;exitY=0;exitDx=0;exitDy=0;entryX=0.5;entryY=1;entryDx=0;entryDy=0;endArrow=none;endFill=0;" parent="1" source="4WxtduSmjNVkcB8dckDW-32" target="4WxtduSmjNVkcB8dckDW-124" edge="1">
          <mxGeometry relative="1" as="geometry" />
        </mxCell>
        <mxCell id="4WxtduSmjNVkcB8dckDW-213" style="rounded=0;orthogonalLoop=1;jettySize=auto;html=1;exitX=1;exitY=0;exitDx=0;exitDy=0;entryX=0;entryY=1;entryDx=0;entryDy=0;entryPerimeter=0;endArrow=none;endFill=0;" parent="1" source="4WxtduSmjNVkcB8dckDW-106" target="4WxtduSmjNVkcB8dckDW-114" edge="1">
          <mxGeometry relative="1" as="geometry" />
        </mxCell>
        <mxCell id="4WxtduSmjNVkcB8dckDW-126" style="edgeStyle=orthogonalEdgeStyle;rounded=0;orthogonalLoop=1;jettySize=auto;html=1;entryX=0;entryY=0.5;entryDx=0;entryDy=0;endArrow=circle;endFill=0;" parent="1" source="4WxtduSmjNVkcB8dckDW-27" target="4WxtduSmjNVkcB8dckDW-125" edge="1">
          <mxGeometry relative="1" as="geometry">
            <Array as="points">
              <mxPoint x="-22" y="534" />
              <mxPoint x="-22" y="534" />
            </Array>
          </mxGeometry>
        </mxCell>
        <mxCell id="4WxtduSmjNVkcB8dckDW-214" style="rounded=0;orthogonalLoop=1;jettySize=auto;html=1;exitX=1;exitY=0.5;exitDx=0;exitDy=0;entryX=0;entryY=0.5;entryDx=0;entryDy=0;entryPerimeter=0;endArrow=none;endFill=0;" parent="1" source="4WxtduSmjNVkcB8dckDW-105" target="4WxtduSmjNVkcB8dckDW-114" edge="1">
          <mxGeometry relative="1" as="geometry" />
        </mxCell>
        <mxCell id="4WxtduSmjNVkcB8dckDW-217" value="(0:N)" style="text;html=1;strokeColor=none;fillColor=none;align=center;verticalAlign=middle;whiteSpace=wrap;rounded=0;" parent="1" vertex="1">
          <mxGeometry x="358" y="504" width="60" height="30" as="geometry" />
        </mxCell>
        <mxCell id="4WxtduSmjNVkcB8dckDW-218" value="(0:N)" style="text;html=1;strokeColor=none;fillColor=none;align=center;verticalAlign=middle;whiteSpace=wrap;rounded=0;" parent="1" vertex="1">
          <mxGeometry x="458" y="504" width="60" height="30" as="geometry" />
        </mxCell>
        <mxCell id="4WxtduSmjNVkcB8dckDW-219" value="(1:1)" style="text;html=1;strokeColor=none;fillColor=none;align=center;verticalAlign=middle;whiteSpace=wrap;rounded=0;" parent="1" vertex="1">
          <mxGeometry x="618" y="504" width="60" height="30" as="geometry" />
        </mxCell>
        <mxCell id="4WxtduSmjNVkcB8dckDW-220" value="(1:N)" style="text;html=1;strokeColor=none;fillColor=none;align=center;verticalAlign=middle;whiteSpace=wrap;rounded=0;" parent="1" vertex="1">
          <mxGeometry x="718" y="504" width="60" height="30" as="geometry" />
        </mxCell>
        <mxCell id="4WxtduSmjNVkcB8dckDW-221" value="(1:1)" style="text;html=1;strokeColor=none;fillColor=none;align=center;verticalAlign=middle;whiteSpace=wrap;rounded=0;" parent="1" vertex="1">
          <mxGeometry x="878" y="504" width="60" height="30" as="geometry" />
        </mxCell>
        <mxCell id="4WxtduSmjNVkcB8dckDW-222" value="(1:N)" style="text;html=1;strokeColor=none;fillColor=none;align=center;verticalAlign=middle;whiteSpace=wrap;rounded=0;" parent="1" vertex="1">
          <mxGeometry x="978" y="504" width="60" height="30" as="geometry" />
        </mxCell>
        <mxCell id="4WxtduSmjNVkcB8dckDW-223" value="(1:1)" style="text;html=1;strokeColor=none;fillColor=none;align=center;verticalAlign=middle;whiteSpace=wrap;rounded=0;" parent="1" vertex="1">
          <mxGeometry x="1088" y="564" width="60" height="30" as="geometry" />
        </mxCell>
        <mxCell id="4WxtduSmjNVkcB8dckDW-224" value="(1:N)" style="text;html=1;strokeColor=none;fillColor=none;align=center;verticalAlign=middle;whiteSpace=wrap;rounded=0;" parent="1" vertex="1">
          <mxGeometry x="1088" y="634" width="60" height="30" as="geometry" />
        </mxCell>
        <mxCell id="4WxtduSmjNVkcB8dckDW-225" value="(1:N)" style="text;html=1;strokeColor=none;fillColor=none;align=center;verticalAlign=middle;whiteSpace=wrap;rounded=0;" parent="1" vertex="1">
          <mxGeometry x="818" y="474" width="60" height="30" as="geometry" />
        </mxCell>
        <mxCell id="4WxtduSmjNVkcB8dckDW-226" value="(1:1)" style="text;html=1;strokeColor=none;fillColor=none;align=center;verticalAlign=middle;whiteSpace=wrap;rounded=0;" parent="1" vertex="1">
          <mxGeometry x="815" y="349" width="60" height="30" as="geometry" />
        </mxCell>
        <mxCell id="4WxtduSmjNVkcB8dckDW-227" value="(1:N)" style="text;html=1;strokeColor=none;fillColor=none;align=center;verticalAlign=middle;whiteSpace=wrap;rounded=0;" parent="1" vertex="1">
          <mxGeometry x="978" y="284" width="60" height="30" as="geometry" />
        </mxCell>
        <mxCell id="4WxtduSmjNVkcB8dckDW-228" value="(0:N)" style="text;html=1;strokeColor=none;fillColor=none;align=center;verticalAlign=middle;whiteSpace=wrap;rounded=0;" parent="1" vertex="1">
          <mxGeometry x="878" y="284" width="60" height="30" as="geometry" />
        </mxCell>
        <mxCell id="4WxtduSmjNVkcB8dckDW-229" value="(0:1)" style="text;html=1;strokeColor=none;fillColor=none;align=center;verticalAlign=middle;whiteSpace=wrap;rounded=0;" parent="1" vertex="1">
          <mxGeometry x="298" y="684" width="60" height="30" as="geometry" />
        </mxCell>
        <mxCell id="4WxtduSmjNVkcB8dckDW-230" value="(0:N)" style="text;html=1;strokeColor=none;fillColor=none;align=center;verticalAlign=middle;whiteSpace=wrap;rounded=0;" parent="1" vertex="1">
          <mxGeometry x="298" y="574" width="60" height="30" as="geometry" />
        </mxCell>
        <mxCell id="4WxtduSmjNVkcB8dckDW-231" value="(1:N)" style="text;html=1;strokeColor=none;fillColor=none;align=center;verticalAlign=middle;whiteSpace=wrap;rounded=0;" parent="1" vertex="1">
          <mxGeometry x="298" y="844" width="60" height="30" as="geometry" />
        </mxCell>
        <mxCell id="4WxtduSmjNVkcB8dckDW-232" value="(1:N)" style="text;html=1;strokeColor=none;fillColor=none;align=center;verticalAlign=middle;whiteSpace=wrap;rounded=0;" parent="1" vertex="1">
          <mxGeometry x="298" y="774" width="60" height="30" as="geometry" />
        </mxCell>
        <mxCell id="4WxtduSmjNVkcB8dckDW-234" value="(0:N)" style="text;html=1;strokeColor=none;fillColor=none;align=center;verticalAlign=middle;whiteSpace=wrap;rounded=0;" parent="1" vertex="1">
          <mxGeometry x="98" y="504" width="60" height="30" as="geometry" />
        </mxCell>
        <mxCell id="4WxtduSmjNVkcB8dckDW-235" value="(1:1)" style="text;html=1;strokeColor=none;fillColor=none;align=center;verticalAlign=middle;whiteSpace=wrap;rounded=0;" parent="1" vertex="1">
          <mxGeometry x="198" y="504" width="60" height="30" as="geometry" />
        </mxCell>
      </root>
    </mxGraphModel>
  </diagram>
</mxfile>
